# xmcd CD database file
#
# Track frame offsets:
#	150
#	26660
#	63289
#	106422
#	137211
#
# Disc length: 2276 seconds
#
# Revision: 1
# Processed by: cddbd v1.5.2PL0 Copyright (c) Steve Scherf et al.
# Submitted via: CDex 1.51
#
DISCID=4008e205
DTITLE=Jim Kovalcik - Natural Jazz
DYEAR=2013
DGENRE=Jazz
TTITLE0=Jim Kovalcik - Beyond My Dreams
TTITLE1=Jim Kovalcik - Rivers To The Sea 
TTITLE2=Jim Kovalcik - Whispers 
TTITLE3=Jim Kovalcik - Rhythm Of Love
TTITLE4=Jim Kovalcik - Salsa Sandy
EXTD=YEAR: 2013
EXTT0=
EXTT1=
EXTT2=
EXTT3=
EXTT4=
PLAYORDER=
